<svg width="18" height="21" viewBox="0 0 18 21" fill="none" xmlns="http://www.w3.org/2000/svg">
<path d="M4.15385 0C2.26578 0 0 1.02918 0 3.80229V11.3527V16.6154C0 16.6154 0 18 1.38462 18V19.3846C1.38462 19.3846 1.38462 20.7692 2.76923 20.7692C4.15385 20.7692 4.15385 19.3846 4.15385 19.3846V18H13.8462V19.3846C13.8462 19.3846 13.8462 20.7692 15.2308 20.7692C16.6154 20.7692 16.6154 19.3846 16.6154 19.3846V18C16.6154 18 18 18 18 16.6154V3.80229C18 0.970061 16.2886 0 14.4006 0L4.15385 0ZM4.5 2.07692H13.5C13.6918 2.07692 13.8462 2.23131 13.8462 2.42308C13.8462 2.61485 13.6918 2.76923 13.5 2.76923H4.5C4.30823 2.76923 4.15385 2.61485 4.15385 2.42308C4.15385 2.23131 4.30823 2.07692 4.5 2.07692ZM2.76923 4.15385H15.2308C16.6154 4.15385 16.6154 5.49249 16.6154 5.49249V9.69231C16.6154 9.69231 16.6154 11.0769 15.2308 11.0769H2.76923C1.38462 11.0769 1.38462 9.69231 1.38462 9.69231V5.53846C1.38462 5.53846 1.38462 4.15385 2.76923 4.15385ZM2.76923 13.8462C3.53395 13.8462 4.15385 14.466 4.15385 15.2308C4.15385 15.9955 3.53395 16.6154 2.76923 16.6154C2.00451 16.6154 1.38462 15.9955 1.38462 15.2308C1.38462 14.466 2.00451 13.8462 2.76923 13.8462ZM15.2308 13.8462C15.9955 13.8462 16.6154 14.466 16.6154 15.2308C16.6154 15.9955 15.9955 16.6154 15.2308 16.6154C14.466 16.6154 13.8462 15.9955 13.8462 15.2308C13.8462 14.466 14.466 13.8462 15.2308 13.8462Z" fill="#001D3D"/>
</svg>
