<svg width="20" height="20" viewBox="0 0 20 20" fill="none" xmlns="http://www.w3.org/2000/svg">
<path d="M18.269 5.51786H17.9777V3.77009C17.9777 2.13884 14.3656 0.857143 9.82143 0.857143C5.27723 0.857143 1.66518 2.13884 1.66518 3.77009V5.51786H1.37388C0.891427 5.51786 0.5 5.90892 0.5 6.39174V9.30469C0.5 9.78714 0.891427 10.1786 1.37388 10.1786H1.66518V16.0045C1.66518 16.6479 2.18696 17.1696 2.83036 17.1696V18.3348C2.83036 18.9782 3.35214 19.5 3.99554 19.5H5.16071C5.80411 19.5 6.32589 18.9782 6.32589 18.3348V17.1696H13.317V18.3348C13.317 18.9782 13.8387 19.5 14.4821 19.5H15.6473C16.2907 19.5 16.8125 18.9782 16.8125 18.3348V17.1696H17.0455C17.6281 17.1696 17.9777 16.7036 17.9777 16.2375V10.1786H18.269C18.7514 10.1786 19.1429 9.78714 19.1429 9.30469V6.39174C19.1429 5.90892 18.7514 5.51786 18.269 5.51786ZM4.57812 15.4219C3.93473 15.4219 3.41295 14.9001 3.41295 14.2567C3.41295 13.6133 3.93473 13.0915 4.57812 13.0915C5.22152 13.0915 5.7433 13.6133 5.7433 14.2567C5.7433 14.9001 5.22152 15.4219 4.57812 15.4219ZM5.16071 11.3438C4.51732 11.3438 3.99554 10.822 3.99554 10.1786V5.51786C3.99554 4.87446 4.51732 4.35268 5.16071 4.35268H14.4821C15.1255 4.35268 15.6473 4.87446 15.6473 5.51786V10.1786C15.6473 10.822 15.1255 11.3438 14.4821 11.3438H5.16071ZM15.0647 15.4219C14.4213 15.4219 13.8996 14.9001 13.8996 14.2567C13.8996 13.6133 14.4213 13.0915 15.0647 13.0915C15.7081 13.0915 16.2299 13.6133 16.2299 14.2567C16.2299 14.9001 15.7081 15.4219 15.0647 15.4219Z" fill="white"/>
</svg>
