<svg width="28" height="28" viewBox="0 0 28 28" fill="none" xmlns="http://www.w3.org/2000/svg">
<circle cx="14" cy="14" r="14" fill="#001D3D"/>
<path d="M11 7C9.6364 7 8 7.7433 8 9.7461V15.1992V19C8 19 8 20 9 20V21C9 21 9 22 10 22C11 22 11 21 11 21V20H18V21C18 21 18 22 19 22C20 22 20 21 20 21V20C20 20 21 20 21 19V9.7461C21 7.7006 19.764 7 18.4004 7L11 7ZM11.25 8.5H17.75C17.8885 8.5 18 8.6115 18 8.75C18 8.8885 17.8885 9 17.75 9H11.25C11.1115 9 11 8.8885 11 8.75C11 8.6115 11.1115 8.5 11.25 8.5ZM10 10H19C20 10 20 10.9668 20 10.9668V14C20 14 20 15 19 15H10C9 15 9 14 9 14V11C9 11 9 10 10 10ZM10 17C10.5523 17 11 17.4477 11 18C11 18.5523 10.5523 19 10 19C9.4477 19 9 18.5523 9 18C9 17.4477 9.4477 17 10 17ZM19 17C19.5523 17 20 17.4477 20 18C20 18.5523 19.5523 19 19 19C18.4477 19 18 18.5523 18 18C18 17.4477 18.4477 17 19 17Z" fill="white"/>
</svg>
