<svg width="20" height="19" viewBox="0 0 20 19" fill="none" xmlns="http://www.w3.org/2000/svg">
<path d="M8.41668 0.75C12.5876 0.75 15.9688 3.99594 15.9688 8C15.9688 9.7319 15.3362 11.3219 14.2807 12.5688L19.3857 17.4697C19.6908 17.7626 19.6908 18.2374 19.3857 18.5303C19.1084 18.7966 18.6744 18.8208 18.3686 18.6029L18.2809 18.5303L13.1758 13.6295C11.877 14.6427 10.2207 15.25 8.41668 15.25C4.24578 15.25 0.864594 12.0041 0.864594 8C0.864594 3.99594 4.24578 0.75 8.41668 0.75ZM8.41668 2.25C5.10872 2.25 2.42709 4.82436 2.42709 8C2.42709 11.1756 5.10872 13.75 8.41668 13.75C11.7246 13.75 14.4063 11.1756 14.4063 8C14.4063 4.82436 11.7246 2.25 8.41668 2.25Z" fill="white"/>
</svg>
