<svg width="14" height="20" viewBox="0 0 14 20" fill="none" xmlns="http://www.w3.org/2000/svg">
<path d="M6.2806 18.8908C0.983281 10.959 0 10.145 0 7.22993C0 3.23694 3.13399 0 7 0C10.866 0 14 3.23694 14 7.22993C14 10.145 13.0167 10.959 7.7194 18.8908C7.37177 19.4095 6.6282 19.4095 6.2806 18.8908ZM7 10.2424C8.61084 10.2424 9.91667 8.89368 9.91667 7.22993C9.91667 5.56618 8.61084 4.21746 7 4.21746C5.38916 4.21746 4.08333 5.56618 4.08333 7.22993C4.08333 8.89368 5.38916 10.2424 7 10.2424Z" fill="#151515"/>
</svg>
