<svg width="19" height="17" viewBox="0 0 19 17" fill="none" xmlns="http://www.w3.org/2000/svg">
<path d="M5.18083 0.130976C5.13945 0.0894613 5.0903 0.0565214 5.03617 0.0340455C4.98204 0.0115697 4.92401 0 4.8654 0C4.80679 0 4.74875 0.0115697 4.69462 0.0340455C4.6405 0.0565214 4.59134 0.0894613 4.54997 0.130976L2.18684 2.48037L1.34445 1.65951C1.30308 1.618 1.25392 1.58506 1.1998 1.56258C1.14567 1.54011 1.08763 1.52854 1.02902 1.52854C0.970415 1.52854 0.912382 1.54011 0.858253 1.56258C0.804125 1.58506 0.754965 1.618 0.713594 1.65951L0.130976 2.24287C0.0894613 2.28424 0.0565214 2.3334 0.0340455 2.38753C0.0115697 2.44166 0 2.49969 0 2.5583C0 2.61691 0.0115697 2.67495 0.0340455 2.72907C0.0565214 2.7832 0.0894613 2.83236 0.130976 2.87373L1.89701 4.63272C1.98516 4.71651 2.10214 4.76324 2.22376 4.76324C2.34538 4.76324 2.46236 4.71651 2.55051 4.63272L3.12905 4.05307L5.80835 1.37414C5.89183 1.2906 5.939 1.1775 5.93962 1.0594C5.94025 0.941294 5.89428 0.827707 5.81169 0.743282L5.18083 0.130976ZM5.18083 6.03842C5.13945 5.99691 5.0903 5.96397 5.03617 5.94149C4.98204 5.91902 4.92401 5.90745 4.8654 5.90745C4.80679 5.90745 4.74875 5.91902 4.69462 5.94149C4.6405 5.96397 4.59134 5.99691 4.54997 6.03842L2.18684 8.40304L1.34445 7.58292C1.30308 7.5414 1.25392 7.50846 1.1998 7.48599C1.14567 7.46351 1.08763 7.45194 1.02902 7.45194C0.970415 7.45194 0.912382 7.46351 0.858253 7.48599C0.804125 7.50846 0.754965 7.5414 0.713594 7.58292L0.130976 8.16516C0.0894613 8.20654 0.0565214 8.25569 0.0340455 8.30982C0.0115697 8.36395 0 8.42198 0 8.48059C0 8.5392 0.0115697 8.59724 0.0340455 8.65137C0.0565214 8.70549 0.0894613 8.75465 0.130976 8.79602L1.89256 10.5587C1.98065 10.6425 2.09756 10.6892 2.21912 10.6892C2.34068 10.6892 2.4576 10.6425 2.54569 10.5587L3.1283 9.97647L5.8076 7.29643C5.89076 7.21347 5.93778 7.10101 5.9384 6.98355C5.93903 6.86608 5.89322 6.75313 5.81094 6.66928L5.18083 6.03842ZM2.37498 12.4699C1.39195 12.4699 0.571836 13.2677 0.571836 14.2511C0.571836 15.2345 1.3927 16.0324 2.37498 16.0324C2.8474 16.0324 3.30047 15.8447 3.63452 15.5106C3.96857 15.1766 4.15623 14.7235 4.15623 14.2511C4.15623 13.7787 3.96857 13.3256 3.63452 12.9916C3.30047 12.6575 2.8474 12.4699 2.37498 12.4699ZM18.4062 13.0636H7.71874C7.56127 13.0636 7.41024 13.1262 7.29889 13.2375C7.18754 13.3489 7.12499 13.4999 7.12499 13.6574V14.8449C7.12499 15.0023 7.18754 15.1534 7.29889 15.2647C7.41024 15.3761 7.56127 15.4386 7.71874 15.4386H18.4062C18.5637 15.4386 18.7147 15.3761 18.8261 15.2647C18.9374 15.1534 19 15.0023 19 14.8449V13.6574C19 13.4999 18.9374 13.3489 18.8261 13.2375C18.7147 13.1262 18.5637 13.0636 18.4062 13.0636ZM18.4062 1.18859H7.71874C7.56127 1.18859 7.41024 1.25115 7.29889 1.3625C7.18754 1.47385 7.12499 1.62487 7.12499 1.78235V2.96985C7.12499 3.12732 7.18754 3.27834 7.29889 3.38969C7.41024 3.50104 7.56127 3.5636 7.71874 3.5636H18.4062C18.5637 3.5636 18.7147 3.50104 18.8261 3.38969C18.9374 3.27834 19 3.12732 19 2.96985V1.78235C19 1.62487 18.9374 1.47385 18.8261 1.3625C18.7147 1.25115 18.5637 1.18859 18.4062 1.18859ZM18.4062 7.1261H7.71874C7.56127 7.1261 7.41024 7.18866 7.29889 7.30001C7.18754 7.41136 7.12499 7.56238 7.12499 7.71985V8.90735C7.12499 9.06483 7.18754 9.21585 7.29889 9.3272C7.41024 9.43855 7.56127 9.5011 7.71874 9.5011H18.4062C18.5637 9.5011 18.7147 9.43855 18.8261 9.3272C18.9374 9.21585 19 9.06483 19 8.90735V7.71985C19 7.56238 18.9374 7.41136 18.8261 7.30001C18.7147 7.18866 18.5637 7.1261 18.4062 7.1261Z" fill="#001D3D"/>
</svg>
