<svg width="27" height="13" viewBox="0 0 27 13" fill="none" xmlns="http://www.w3.org/2000/svg">
<path d="M13.5327 7.54915C10.4828 7.54915 7.8916 8.43602 6.19909 9.82613V12.4117H20.8675V9.82613C19.175 8.43602 16.5832 7.54915 13.5327 7.54915ZM27 6.22222L13.4972 0L0 6.22222L2.24991 7.25183V8.83545C1.68574 8.95223 1.68404 9.24786 1.68404 9.59933C1.68404 9.80695 1.75287 10.0501 1.88376 10.1957L1.11198 11.8475H3.86512L3.10011 10.1945C3.22874 10.049 3.33424 9.83459 3.33424 9.62698C3.33424 9.27607 2.81408 8.95167 2.81408 8.83489V7.51642L5.63492 8.78355V8.67128C7.32743 7.19936 10.3012 6.2651 13.5322 6.2651C16.7643 6.2651 19.7391 7.19936 21.4317 8.67128V8.78355L27 6.22222Z" fill="#001D3D"/>
</svg>
