<svg width="14" height="23" viewBox="0 0 14 23" fill="none" xmlns="http://www.w3.org/2000/svg">
<path d="M9.09737 4.19929C10.2565 4.19929 11.197 3.25882 11.197 2.09965C11.197 0.940466 10.2565 0 9.09737 0C7.93819 0 6.99772 0.940466 6.99772 2.09965C6.99772 3.25882 7.93819 4.19929 9.09737 4.19929ZM13.231 10.7213L12.2118 10.2052L11.7875 8.91912C11.1445 6.9682 9.35108 5.60343 7.31705 5.59905C5.74231 5.59468 4.87183 6.04085 3.23586 6.70137C2.29102 7.08193 1.51678 7.80368 1.06185 8.72228L0.768776 9.31718C0.427584 10.0083 0.703162 10.8482 1.38992 11.1937C2.07231 11.5393 2.90342 11.2593 3.24898 10.5682L3.54206 9.97332C3.69516 9.66712 3.94886 9.42653 4.26381 9.29968L5.43611 8.82726L4.77123 11.4824C4.54376 12.3923 4.78872 13.359 5.42299 14.0545L8.04317 16.9153C8.35812 17.2608 8.58121 17.6764 8.69494 18.1269L9.49543 21.3333C9.68352 22.0813 10.4446 22.5406 11.1926 22.3525C11.9406 22.1644 12.3999 21.4033 12.2118 20.6553L11.2408 16.7622C11.127 16.3116 10.9039 15.8917 10.589 15.5505L8.5987 13.3765L9.35108 10.3714L9.59166 11.0931C9.8235 11.7974 10.3222 12.3792 10.9783 12.7116L11.9975 13.2278C12.6799 13.5733 13.511 13.2934 13.8566 12.6022C14.1934 11.9155 13.9178 11.0669 13.231 10.7213ZM3.21836 16.8759C3.07839 17.2302 2.86842 17.5495 2.59722 17.8164L0.410087 20.0079C-0.136696 20.5547 -0.136696 21.4426 0.410087 21.9894C0.95687 22.5362 1.84047 22.5362 2.38725 21.9894L4.98556 19.3911C5.25239 19.1243 5.46236 18.8049 5.60671 18.4506L6.19723 16.9721C3.77827 14.3345 4.5044 15.1437 4.12383 14.6232L3.21836 16.8759Z" fill="#001D3D"/>
</svg>
