<svg width="22" height="22" viewBox="0 0 22 22" fill="none" xmlns="http://www.w3.org/2000/svg">
<path d="M9.79167 0.751145C10.286 -0.250379 11.7141 -0.250384 12.2084 0.751145L14.8771 6.15873L20.8448 7.02586C21.95 7.18646 22.3914 8.54474 21.5916 9.32432L17.2734 13.5335L18.2928 19.4771C18.4816 20.5778 17.3262 21.4173 16.3376 20.8975L11 18.0914L5.66237 20.8975C4.6738 21.4173 3.51841 20.5778 3.70723 19.4771L4.7266 13.5335L0.408404 9.32432C-0.391364 8.54474 0.049957 7.18646 1.15521 7.02586L7.12284 6.15873L9.79167 0.751145ZM11 1.40964L8.34945 6.78023C8.15316 7.17794 7.77377 7.4536 7.33487 7.5174L1.40807 8.37859L5.69674 12.559C6.01432 12.8686 6.15924 13.3146 6.08427 13.7517L5.07189 19.6546L10.373 16.8676C10.7655 16.6612 11.2345 16.6613 11.6271 16.8676L16.9281 19.6546L15.9157 13.7517C15.8407 13.3146 15.9857 12.8686 16.3032 12.559L20.5919 8.37859L14.6651 7.5174C14.2262 7.4536 13.8468 7.17794 13.6505 6.78023L11 1.40964Z" fill="#001D3D"/>
</svg>
